<svg width="22" height="22" viewBox="0 0 22 22" fill="none" xmlns="http://www.w3.org/2000/svg">
<path opacity="0.6" d="M18.7305 11.8914C18.0905 16.4336 13.8908 19.5966 9.35064 18.9569C4.8105 18.3172 1.64826 14.1168 2.28826 9.57468C2.92826 5.03253 7.12802 1.86954 11.6682 2.50925C16.2083 3.14897 19.3705 7.34929 18.7305 11.8914Z" stroke="white" stroke-width="2"/>
<path fill-rule="evenodd" clip-rule="evenodd" d="M17.583 17.4447C20.0383 14.6638 20.7291 10.7033 19.361 7.24986C17.993 3.79637 14.8072 1.45811 11.1602 1.23082C7.51323 1.00352 4.04749 2.92722 2.23883 6.18273C1.41982 7.86319 3.24251 9.06028 4.24393 7.2875C5.98384 4.20578 9.60984 2.80162 12.8938 3.93786C16.1778 5.0741 18.1993 8.43228 17.7162 11.9488C17.5167 13.4067 16.89 14.7714 15.9186 15.8632C14.7377 17.1823 16.5281 18.6262 17.583 17.4447Z" fill="#78C2FF"/>
</svg>
