<svg width="375" height="793" viewBox="0 0 375 793" fill="none" xmlns="http://www.w3.org/2000/svg">
<g opacity="0.15" clip-path="url(#clip0_1_2839)">
<path d="M68.6511 254.061V266.618" stroke="white" stroke-width="7" stroke-linecap="round" stroke-linejoin="round"/>
<path d="M227 118V130.557" stroke="white" stroke-width="7" stroke-linecap="round" stroke-linejoin="round"/>
<path d="M74.9296 260.339H62.3726" stroke="white" stroke-width="7" stroke-linecap="round" stroke-linejoin="round"/>
<path d="M233.557 124H221" stroke="white" stroke-width="7" stroke-linecap="round" stroke-linejoin="round"/>
<path d="M147.167 329.299H134.61" stroke="white" stroke-width="7" stroke-linecap="round" stroke-linejoin="round"/>
<path d="M57.557 714H45" stroke="white" stroke-width="7" stroke-linecap="round" stroke-linejoin="round"/>
<path d="M140.888 335.578V323.021" stroke="white" stroke-width="7" stroke-linecap="round" stroke-linejoin="round"/>
<path d="M51 720.557V708" stroke="white" stroke-width="7" stroke-linecap="round" stroke-linejoin="round"/>
<path d="M10 42V45.5C11.933 45.5 13.5 43.933 13.5 42H10ZM17 42H13.5C13.5 43.933 15.067 45.5 17 45.5V42ZM17 49V45.5C15.067 45.5 13.5 47.067 13.5 49H17ZM10 49H13.5C13.5 47.067 11.933 45.5 10 45.5V49ZM6.5 39.5V42H13.5V39.5H6.5ZM13.5 32.5C9.63401 32.5 6.5 35.634 6.5 39.5H13.5V32.5ZM20.5 39.5C20.5 35.634 17.366 32.5 13.5 32.5V39.5H20.5ZM20.5 42V39.5H13.5V42H20.5ZM20.057 38.5H17V45.5H20.057V38.5ZM27.057 45.5C27.057 41.634 23.923 38.5 20.057 38.5V45.5H27.057ZM20.057 52.5C23.923 52.5 27.057 49.366 27.057 45.5H20.057V52.5ZM17 52.5H20.057V45.5H17V52.5ZM20.5 52.057V49H13.5V52.057H20.5ZM13.5 59.057C17.366 59.057 20.5 55.923 20.5 52.057H13.5V59.057ZM6.5 52.057C6.5 55.923 9.63401 59.057 13.5 59.057V52.057H6.5ZM6.5 49V52.057H13.5V49H6.5ZM7.5 52.5H10V45.5H7.5V52.5ZM0.5 45.5C0.5 49.366 3.63401 52.5 7.5 52.5V45.5H0.5ZM7.5 38.5C3.63401 38.5 0.5 41.634 0.5 45.5H7.5V38.5ZM10 38.5H7.5V45.5H10V38.5Z" fill="white"/>
<path d="M317 398V401.5C318.933 401.5 320.5 399.933 320.5 398H317ZM324 398H320.5C320.5 399.933 322.067 401.5 324 401.5V398ZM324 405V401.5C322.067 401.5 320.5 403.067 320.5 405H324ZM317 405H320.5C320.5 403.067 318.933 401.5 317 401.5V405ZM313.5 395.5V398H320.5V395.5H313.5ZM320.5 388.5C316.634 388.5 313.5 391.634 313.5 395.5H320.5V388.5ZM327.5 395.5C327.5 391.634 324.366 388.5 320.5 388.5V395.5H327.5ZM327.5 398V395.5H320.5V398H327.5ZM327.057 394.5H324V401.5H327.057V394.5ZM334.057 401.5C334.057 397.634 330.923 394.5 327.057 394.5V401.5H334.057ZM327.057 408.5C330.923 408.5 334.057 405.366 334.057 401.5H327.057V408.5ZM324 408.5H327.057V401.5H324V408.5ZM327.5 408.057V405H320.5V408.057H327.5ZM320.5 415.057C324.366 415.057 327.5 411.923 327.5 408.057H320.5V415.057ZM313.5 408.057C313.5 411.923 316.634 415.057 320.5 415.057V408.057H313.5ZM313.5 405V408.057H320.5V405H313.5ZM314.5 408.5H317V401.5H314.5V408.5ZM307.5 401.5C307.5 405.366 310.634 408.5 314.5 408.5V401.5H307.5ZM314.5 394.5C310.634 394.5 307.5 397.634 307.5 401.5H314.5V394.5ZM317 394.5H314.5V401.5H317V394.5Z" fill="white"/>
<path d="M176 599V602.5C177.933 602.5 179.5 600.933 179.5 599H176ZM183 599H179.5C179.5 600.933 181.067 602.5 183 602.5V599ZM183 606V602.5C181.067 602.5 179.5 604.067 179.5 606H183ZM176 606H179.5C179.5 604.067 177.933 602.5 176 602.5V606ZM172.5 596.5V599H179.5V596.5H172.5ZM179.5 589.5C175.634 589.5 172.5 592.634 172.5 596.5H179.5V589.5ZM186.5 596.5C186.5 592.634 183.366 589.5 179.5 589.5V596.5H186.5ZM186.5 599V596.5H179.5V599H186.5ZM186.057 595.5H183V602.5H186.057V595.5ZM193.057 602.5C193.057 598.634 189.923 595.5 186.057 595.5V602.5H193.057ZM186.057 609.5C189.923 609.5 193.057 606.366 193.057 602.5H186.057V609.5ZM183 609.5H186.057V602.5H183V609.5ZM186.5 609.057V606H179.5V609.057H186.5ZM179.5 616.057C183.366 616.057 186.5 612.923 186.5 609.057H179.5V616.057ZM172.5 609.057C172.5 612.923 175.634 616.057 179.5 616.057V609.057H172.5ZM172.5 606V609.057H179.5V606H172.5ZM173.5 609.5H176V602.5H173.5V609.5ZM166.5 602.5C166.5 606.366 169.634 609.5 173.5 609.5V602.5H166.5ZM173.5 595.5C169.634 595.5 166.5 598.634 166.5 602.5H173.5V595.5ZM176 595.5H173.5V602.5H176V595.5Z" fill="white"/>
<path d="M64 64V67.5C65.933 67.5 67.5 65.933 67.5 64H64ZM71 64H67.5C67.5 65.933 69.067 67.5 71 67.5V64ZM71 71V67.5C69.067 67.5 67.5 69.067 67.5 71H71ZM64 71H67.5C67.5 69.067 65.933 67.5 64 67.5V71ZM60.5 61.5V64H67.5V61.5H60.5ZM67.5 54.5C63.634 54.5 60.5 57.634 60.5 61.5H67.5V54.5ZM74.5 61.5C74.5 57.634 71.366 54.5 67.5 54.5V61.5H74.5ZM74.5 64V61.5H67.5V64H74.5ZM74.057 60.5H71V67.5H74.057V60.5ZM81.057 67.5C81.057 63.634 77.923 60.5 74.057 60.5V67.5H81.057ZM74.057 74.5C77.923 74.5 81.057 71.366 81.057 67.5H74.057V74.5ZM71 74.5H74.057V67.5H71V74.5ZM74.5 74.057V71H67.5V74.057H74.5ZM67.5 81.057C71.366 81.057 74.5 77.923 74.5 74.057H67.5V81.057ZM60.5 74.057C60.5 77.923 63.634 81.057 67.5 81.057V74.057H60.5ZM60.5 71V74.057H67.5V71H60.5ZM61.5 74.5H64V67.5H61.5V74.5ZM54.5 67.5C54.5 71.366 57.634 74.5 61.5 74.5V67.5H54.5ZM61.5 60.5C57.634 60.5 54.5 63.634 54.5 67.5H61.5V60.5ZM64 60.5H61.5V67.5H64V60.5Z" fill="white"/>
<path d="M150.167 496.066V508.623" stroke="white" stroke-width="7" stroke-linecap="round" stroke-linejoin="round"/>
<path d="M156.446 502.345H143.889" stroke="white" stroke-width="7" stroke-linecap="round" stroke-linejoin="round"/>
<path fill-rule="evenodd" clip-rule="evenodd" d="M272 329C272 332.866 268.866 336 265 336C261.134 336 258 332.866 258 329C258 325.134 261.134 322 265 322C268.866 322 272 325.134 272 329V329Z" stroke="white" stroke-width="7" stroke-linecap="round" stroke-linejoin="round"/>
<path fill-rule="evenodd" clip-rule="evenodd" d="M369 175C369 178.866 365.866 182 362 182C358.134 182 355 178.866 355 175C355 171.134 358.134 168 362 168C365.866 168 369 171.134 369 175V175Z" stroke="white" stroke-width="7" stroke-linecap="round" stroke-linejoin="round"/>
<path fill-rule="evenodd" clip-rule="evenodd" d="M92.61 465.34C92.61 469.206 89.476 472.34 85.61 472.34C81.744 472.34 78.61 469.206 78.61 465.34C78.61 461.474 81.744 458.34 85.61 458.34C89.476 458.34 92.61 461.474 92.61 465.34V465.34Z" stroke="white" stroke-width="7" stroke-linecap="round" stroke-linejoin="round"/>
<path fill-rule="evenodd" clip-rule="evenodd" d="M324.414 612.09C324.414 615.956 321.28 619.09 317.414 619.09C313.548 619.09 310.414 615.956 310.414 612.09C310.414 608.224 313.548 605.09 317.414 605.09C321.28 605.09 324.414 608.224 324.414 612.09V612.09Z" stroke="white" stroke-width="7" stroke-linecap="round" stroke-linejoin="round"/>
<path fill-rule="evenodd" clip-rule="evenodd" d="M376 753C376 756.866 372.866 760 369 760C365.134 760 362 756.866 362 753C362 749.134 365.134 746 369 746C372.866 746 376 749.134 376 753V753Z" stroke="white" stroke-width="7" stroke-linecap="round" stroke-linejoin="round"/>
</g>
<defs>
<clipPath id="clip0_1_2839">
<rect width="486" height="826" fill="white" transform="translate(-72 -33)"/>
</clipPath>
</defs>
</svg>
