<svg width="106" height="39" viewBox="0 0 106 39" fill="none" xmlns="http://www.w3.org/2000/svg">
<path d="M1.20353 37.1608C1.20353 37.1608 7.36693 21.2319 10.0761 21.7275C12.7853 22.2232 11.5273 27.9533 14.0719 28.0219C16.6165 28.0905 17.5888 22.2605 19.2724 22.1036C20.956 21.9467 21.2327 29.1503 23.9335 29.2093C26.6342 29.2683 28.3111 12.5551 31.1932 13.0824C34.0753 13.6097 34.2457 25.0459 37.708 23.0563C41.1703 21.0667 46.0326 1.59257 48.1653 1.98279C50.298 2.373 46.109 26.6822 47.1992 28.5197C48.2895 30.3572 51.5514 21.3394 53.7557 21.0622C55.9599 20.7849 54.3619 29.8302 56.9129 30.297C59.4639 30.7637 61.0643 23.7605 62.9979 23.4056C64.9315 23.0506 68.8843 27.8082 71.7127 26.9978C74.541 26.1874 80.6904 6.0733 82.5591 5.92515C84.4277 5.77699 81.7659 29.5985 84.9016 29.4109C88.0373 29.2233 91.6773 18.6684 93.582 19.4953C95.4868 20.3222 92.8514 32.4166 96.0047 32.9935C99.158 33.5705 99.9679 27.7431 101.777 27.0828C103.586 26.4226 104.838 35.3385 104.838 35.3385" stroke="white" stroke-width="2" stroke-linecap="round"/>
</svg>
