<svg width="144" height="145" viewBox="0 0 144 145" fill="none" xmlns="http://www.w3.org/2000/svg">
<path fill-rule="evenodd" clip-rule="evenodd" d="M75.158 144.885C113.178 144.885 144 114.063 144 76.043C144 38.0226 113.178 7.2009 75.158 7.2009C37.1376 7.2009 6.31592 38.0226 6.31592 76.043C6.31592 114.063 37.1376 144.885 75.158 144.885Z" fill="url(#paint0_linear_1_905)"/>
<path fill-rule="evenodd" clip-rule="evenodd" d="M68.9577 134.366C32.8346 134.366 3.54924 105.081 3.54924 68.9577C3.54924 32.8347 32.8346 3.54929 68.9577 3.54929C105.081 3.54929 134.366 32.8347 134.366 68.9577C134.366 105.081 105.081 134.366 68.9577 134.366ZM68.9577 0C30.8734 0 0 30.8734 0 68.9577C0 107.042 30.8734 137.915 68.9577 137.915C107.042 137.915 137.915 107.042 137.915 68.9577C137.915 30.8734 107.042 0 68.9577 0Z" fill="white"/>
<path fill-rule="evenodd" clip-rule="evenodd" d="M86.4196 50.1483L61.209 76.0918L52.5282 67.16L46.7368 73.1203L61.2373 88.043L92.2105 56.108L86.4196 50.1483Z" fill="white"/>
<defs>
<linearGradient id="paint0_linear_1_905" x1="-62.5262" y1="76.043" x2="75.158" y2="213.727" gradientUnits="userSpaceOnUse">
<stop stop-color="#FF6480"/>
<stop offset="1" stop-color="#F22E63"/>
</linearGradient>
</defs>
</svg>
